<?xml version="1.0" encoding="UTF-8"?><svg version="1.1" viewBox="0 0 24 24" xmlns="http://www.w3.org/2000/svg" xmlns:xlink="http://www.w3.org/1999/xlink"><!--Generated by IJSVG (https://github.com/iconjar/IJSVG)--><g stroke-linecap="round" stroke-width="1" stroke="#E5E5E5" fill="none" stroke-linejoin="round"><path d="M20.1317,3.86827c4.49103,4.49103 4.49103,11.7724 0,16.2635c-4.49103,4.49103 -11.7724,4.49103 -16.2635,0c-4.49103,-4.49103 -4.49103,-11.7724 0,-16.2635c4.49103,-4.49103 11.7724,-4.49103 16.2635,0"></path><path fill-rule="evenodd" d="M6.518,1.887l1.64469e-06,1.24754e-06c5.97878,4.53507 9.48808,11.6088 9.482,19.113c0,0.61 -0.0223333,1.21333 -0.067,1.81"></path><path fill-rule="evenodd" d="M20.585,4.349l-9.45872e-07,9.06477e-07c-4.46176,4.27593 -10.4051,6.65937 -16.585,6.651l1.09725e-06,2.65867e-10c-1.14828,-0.000278203 -2.29512,-0.0814788 -3.43199,-0.242998"></path><path fill-rule="evenodd" d="M3.059,19.231l9.60916e-08,-9.26702e-08c4.46533,-4.30635 10.4295,-6.70878 16.633,-6.7l4.70212e-07,2.65022e-09c1.26476,0.0071285 2.52762,0.0993367 3.78,0.276"></path></g></svg>